<svg xmlns="http://www.w3.org/2000/svg" xmlns:xlink="http://www.w3.org/1999/xlink" viewBox="0 0 266.79 266.79"><defs><style>.cls-1{fill:none;}.cls-2{clip-path:url(#clip-path);}.cls-3{fill:#c2c3c6;}.cls-4{fill:#c4c4c8;}.cls-5{fill:#c6c6c9;}.cls-6{fill:#c6c8ca;}.cls-7{fill:#c8c9cb;}.cls-8{fill:#cbcacb;}.cls-9{fill:#cbcccc;}.cls-10{fill:#cdccce;}.cls-11{fill:#cfcfd1;}.cls-12{fill:#cfd1d2;}.cls-13{fill:#d2d2d2;}.cls-14{fill:#d4d2d2;}.cls-15{fill:#d4d4d5;}.cls-16{fill:#d4d4d7;}.cls-17{fill:#d6d7d8;}.cls-18{fill:#d9d8d8;}.cls-19{fill:#d8d8da;}.cls-20{fill:#dbdbdb;}.cls-21{fill:#dbddde;}.cls-22{fill:#ddddde;}.cls-23{fill:#e0dede;}.cls-24{fill:#e0e0e1;}.cls-25{fill:#e0e0e3;}.cls-26{fill:#e0e2e4;}.cls-27{fill:#e2e3e4;}.cls-28{fill:#e5e4e4;}.cls-29{fill:#e5e4e6;}.cls-30{fill:#e7e7e9;}.cls-31{fill:#eae8e9;}.cls-32{fill:#eaeaea;}.cls-33{fill:#ecebec;}.cls-34{fill:#efeeed;}.cls-35{fill:#f1f1f1;}.cls-36{fill:#f4f4f4;}.cls-37{fill:#f7f5f5;}.cls-38{fill:#f7f8f9;}.cls-39{fill:#fafafd;}.cls-40{fill:#fff;}</style><clipPath id="clip-path" transform="translate(20.01 20.01)"><path class="cls-1" d="M136.06,204.09V181.42l11.34,11.34-11.34,11.33Zm0-45.35V136.07l22.68-22.68L136.06,90.71V68l45.36,45.36-45.36,45.35Zm0-113.38,68,68L147.4,170.08l11.34,11.34,68-68L136.06,22.68Zm0-22.68V45.36l-17-17-5.66-5.66V0l22.67,22.68Zm0,45.35L113.39,45.35V68l22.67,22.68V68Zm0,68v22.67h0l-22.67-22.67V121.4h8l14.66,14.67Zm0,45.35v22.67l-11.33-11.33,11.33-11.34Zm-22.67,45.35h0l11.34-11.34-11.34-11.34h0v22.68Zm0-45.35h0l11.34-11.34-11.34-11.34v22.68Zm0-76V90.71L128,105.37Zm-22.68-60L102,34,90.71,22.67,79.37,34,90.71,45.35ZM113.39,0V22.68h0L102,11.34,113.38,0Zm0,45.35V68L102.05,56.69l11.34-11.34Zm0,45.36v14.66h-8L90.71,90.71,68,113.38l45.36,45.36v22.68l-56.7-56.7L45.35,113.38,90.71,68l22.68,22.68Zm0,30.69H98.72l14.67,14.67V121.4Zm0,82.69L105.25,196,22.68,113.38,79.37,56.69,68,45.35l-68,68L113.39,226.77Z"/></clipPath></defs><g id="Layer_2" data-name="Layer 2"><g id="Layer_1-2" data-name="Layer 1"><g class="cls-2"><rect class="cls-3" x="122.78" y="-89.84" width="27.82" height="220" transform="translate(103.99 167.89) rotate(-75.97)"/><rect class="cls-3" x="132.79" y="-76.19" width="0.97" height="220" transform="translate(88.17 174.92) rotate(-75.97)"/><rect class="cls-3" x="132.64" y="-75.56" width="0.97" height="220" transform="translate(87.44 175.25) rotate(-75.97)"/><rect class="cls-3" x="132.48" y="-74.94" width="0.97" height="220" transform="translate(86.72 175.57) rotate(-75.97)"/><rect class="cls-3" x="132.32" y="-74.31" width="0.97" height="220" transform="translate(85.99 175.89) rotate(-75.97)"/><rect class="cls-4" x="132.17" y="-73.69" width="0.97" height="220" transform="translate(85.26 176.21) rotate(-75.96)"/><rect class="cls-4" x="132.01" y="-73.06" width="0.97" height="220" transform="translate(84.53 176.53) rotate(-75.96)"/><rect class="cls-4" x="131.86" y="-72.44" width="0.97" height="220" transform="translate(83.78 176.83) rotate(-75.95)"/><rect class="cls-5" x="131.7" y="-71.81" width="0.97" height="220" transform="translate(83.09 177.18) rotate(-75.97)"/><rect class="cls-5" x="131.54" y="-71.19" width="0.97" height="220" transform="translate(82.37 177.5) rotate(-75.97)"/><rect class="cls-5" x="131.39" y="-70.56" width="0.97" height="220" transform="translate(81.64 177.82) rotate(-75.97)"/><rect class="cls-5" x="131.23" y="-69.93" width="0.97" height="220" transform="translate(80.9 178.13) rotate(-75.96)"/><rect class="cls-5" x="131.07" y="-69.31" width="0.97" height="220" transform="translate(80.19 178.47) rotate(-75.97)"/><rect class="cls-5" x="130.92" y="-68.68" width="0.97" height="220" transform="translate(79.47 178.79) rotate(-75.97)"/><rect class="cls-6" x="130.76" y="-68.06" width="0.97" height="220" transform="translate(78.74 179.11) rotate(-75.97)"/><rect class="cls-6" x="130.6" y="-67.43" width="0.97" height="220" transform="translate(78.01 179.43) rotate(-75.97)"/><rect class="cls-7" x="130.45" y="-66.81" width="0.97" height="220" transform="translate(77.29 179.76) rotate(-75.97)"/><rect class="cls-7" x="130.29" y="-66.18" width="0.97" height="220" transform="translate(76.56 180.07) rotate(-75.96)"/><rect class="cls-7" x="130.14" y="-65.56" width="0.97" height="220" transform="translate(75.84 180.4) rotate(-75.97)"/><rect class="cls-8" x="129.98" y="-64.93" width="0.97" height="220" transform="translate(75.08 180.7) rotate(-75.95)"/><rect class="cls-8" x="129.82" y="-64.31" width="0.97" height="220" transform="translate(74.39 181.04) rotate(-75.97)"/><rect class="cls-8" x="129.67" y="-63.68" width="0.97" height="220" transform="translate(73.67 181.37) rotate(-75.97)"/><rect class="cls-9" x="129.51" y="-63.06" width="0.97" height="220" transform="translate(72.93 181.68) rotate(-75.96)"/><rect class="cls-9" x="129.35" y="-62.43" width="0.97" height="220" transform="translate(72.21 182) rotate(-75.96)"/><rect class="cls-9" x="129.2" y="-61.81" width="0.97" height="220" transform="translate(71.49 182.33) rotate(-75.97)"/><rect class="cls-9" x="129.04" y="-61.18" width="0.97" height="220" transform="translate(70.77 182.65) rotate(-75.97)"/><rect class="cls-9" x="128.89" y="-60.55" width="0.97" height="220" transform="translate(70.01 182.95) rotate(-75.95)"/><rect class="cls-9" x="128.73" y="-59.93" width="0.97" height="220" transform="translate(69.32 183.3) rotate(-75.97)"/><rect class="cls-10" x="128.57" y="-59.3" width="0.97" height="220" transform="translate(68.58 183.61) rotate(-75.96)"/><rect class="cls-10" x="128.42" y="-58.68" width="0.97" height="220" transform="translate(67.87 183.94) rotate(-75.97)"/><rect class="cls-10" x="128.26" y="-58.05" width="0.97" height="220" transform="translate(67.14 184.26) rotate(-75.97)"/><rect class="cls-11" x="128.1" y="-57.43" width="0.97" height="220" transform="translate(66.38 184.56) rotate(-75.95)"/><rect class="cls-11" x="127.95" y="-56.8" width="0.97" height="220" transform="translate(65.69 184.91) rotate(-75.97)"/><rect class="cls-11" x="127.79" y="-56.18" width="0.97" height="220" transform="translate(64.96 185.22) rotate(-75.97)"/><rect class="cls-11" x="127.63" y="-55.55" width="0.97" height="220" transform="translate(64.22 185.54) rotate(-75.96)"/><rect class="cls-11" x="127.48" y="-54.93" width="0.97" height="220" transform="translate(63.52 185.87) rotate(-75.97)"/><rect class="cls-11" x="127.32" y="-54.3" width="0.97" height="220" transform="translate(62.79 186.19) rotate(-75.97)"/><rect class="cls-12" x="127.17" y="-53.68" width="0.97" height="220" transform="translate(62.07 186.52) rotate(-75.97)"/><rect class="cls-12" x="127.01" y="-53.05" width="0.97" height="220" transform="translate(61.31 186.81) rotate(-75.95)"/><rect class="cls-12" x="126.85" y="-52.43" width="0.97" height="220" transform="translate(60.6 187.15) rotate(-75.96)"/><rect class="cls-13" x="126.7" y="-51.8" width="0.97" height="220" transform="translate(59.88 187.48) rotate(-75.96)"/><rect class="cls-13" x="126.54" y="-51.18" width="0.97" height="220" transform="translate(59.17 187.81) rotate(-75.97)"/><rect class="cls-13" x="126.38" y="-50.55" width="0.97" height="220" transform="translate(58.44 188.13) rotate(-75.97)"/><rect class="cls-14" x="126.23" y="-49.92" width="0.97" height="220" transform="translate(57.72 188.45) rotate(-75.97)"/><rect class="cls-14" x="126.07" y="-49.3" width="0.97" height="220" transform="translate(56.99 188.77) rotate(-75.97)"/><rect class="cls-15" x="125.92" y="-48.67" width="0.97" height="220" transform="translate(56.25 189.08) rotate(-75.96)"/><rect class="cls-15" x="125.76" y="-48.05" width="0.97" height="220" transform="translate(55.54 189.42) rotate(-75.97)"/><rect class="cls-15" x="125.6" y="-47.42" width="0.97" height="220" transform="translate(54.82 189.74) rotate(-75.97)"/><rect class="cls-16" x="125.45" y="-46.8" width="0.97" height="220" transform="translate(54.09 190.06) rotate(-75.97)"/><rect class="cls-16" x="125.29" y="-46.17" width="0.97" height="220" transform="translate(53.36 190.38) rotate(-75.97)"/><rect class="cls-16" x="125.13" y="-45.55" width="0.97" height="220" transform="translate(52.61 190.68) rotate(-75.95)"/><rect class="cls-17" x="124.98" y="-44.92" width="0.97" height="220" transform="translate(51.91 191.03) rotate(-75.97)"/><rect class="cls-17" x="124.82" y="-44.3" width="0.97" height="220" transform="translate(51.19 191.35) rotate(-75.97)"/><rect class="cls-17" x="124.67" y="-43.67" width="0.97" height="220" transform="translate(50.46 191.67) rotate(-75.97)"/><rect class="cls-17" x="124.51" y="-43.05" width="0.97" height="220" transform="translate(49.74 191.99) rotate(-75.97)"/><rect class="cls-17" x="124.35" y="-42.42" width="0.97" height="220" transform="translate(49 192.31) rotate(-75.96)"/><rect class="cls-17" x="124.2" y="-41.8" width="0.97" height="220" transform="translate(48.27 192.62) rotate(-75.96)"/><rect class="cls-18" x="124.04" y="-41.17" width="0.97" height="220" transform="translate(47.53 192.93) rotate(-75.95)"/><rect class="cls-18" x="123.88" y="-40.55" width="0.97" height="220" transform="translate(46.84 193.28) rotate(-75.97)"/><rect class="cls-18" x="123.73" y="-39.92" width="0.97" height="220" transform="translate(46.11 193.6) rotate(-75.97)"/><rect class="cls-19" x="123.57" y="-39.29" width="0.97" height="220" transform="translate(45.39 193.93) rotate(-75.97)"/><rect class="cls-19" x="123.41" y="-38.67" width="0.97" height="220" transform="translate(44.65 194.24) rotate(-75.96)"/><rect class="cls-19" x="123.26" y="-38.04" width="0.97" height="220" transform="translate(43.91 194.54) rotate(-75.95)"/><rect class="cls-20" x="123.1" y="-37.42" width="0.97" height="220" transform="translate(43.21 194.89) rotate(-75.97)"/><rect class="cls-20" x="122.95" y="-36.79" width="0.97" height="220" transform="translate(42.49 195.21) rotate(-75.97)"/><rect class="cls-20" x="122.79" y="-36.17" width="0.97" height="220" transform="translate(41.76 195.54) rotate(-75.97)"/><rect class="cls-21" x="122.63" y="-35.54" width="0.97" height="220" transform="translate(41.04 195.86) rotate(-75.97)"/><rect class="cls-21" x="122.48" y="-34.92" width="0.97" height="220" transform="translate(40.3 196.17) rotate(-75.96)"/><rect class="cls-21" x="122.32" y="-34.29" width="0.97" height="220" transform="translate(39.59 196.5) rotate(-75.97)"/><rect class="cls-21" x="122.16" y="-33.67" width="0.97" height="220" transform="translate(38.83 196.79) rotate(-75.95)"/><rect class="cls-21" x="122.01" y="-33.04" width="0.97" height="220" transform="translate(38.14 197.15) rotate(-75.97)"/><rect class="cls-21" x="121.85" y="-32.42" width="0.97" height="220" transform="translate(37.41 197.47) rotate(-75.97)"/><rect class="cls-22" x="121.7" y="-31.79" width="0.97" height="220" transform="translate(36.68 197.78) rotate(-75.96)"/><rect class="cls-22" x="121.54" y="-31.17" width="0.97" height="220" transform="translate(35.95 198.1) rotate(-75.96)"/><rect class="cls-23" x="121.38" y="-30.54" width="0.97" height="220" transform="translate(35.24 198.44) rotate(-75.97)"/><rect class="cls-23" x="121.23" y="-29.91" width="0.97" height="220" transform="translate(34.51 198.75) rotate(-75.97)"/><rect class="cls-23" x="121.07" y="-29.29" width="0.97" height="220" transform="translate(33.76 199.05) rotate(-75.95)"/><rect class="cls-24" x="120.91" y="-28.66" width="0.97" height="220" transform="translate(33.06 199.4) rotate(-75.97)"/><rect class="cls-24" x="120.76" y="-28.04" width="0.97" height="220" transform="translate(32.33 199.71) rotate(-75.96)"/><rect class="cls-24" x="120.6" y="-27.41" width="0.97" height="220" transform="translate(31.61 200.04) rotate(-75.97)"/><rect class="cls-25" x="120.44" y="-26.79" width="0.97" height="220" transform="translate(30.89 200.37) rotate(-75.97)"/><rect class="cls-25" x="120.29" y="-26.16" width="0.97" height="220" transform="translate(30.13 200.66) rotate(-75.95)"/><rect class="cls-25" x="120.13" y="-25.54" width="0.97" height="220" transform="translate(29.44 201.01) rotate(-75.97)"/><rect class="cls-26" x="119.98" y="-24.91" width="0.97" height="220" transform="translate(28.71 201.33) rotate(-75.97)"/><rect class="cls-26" x="119.82" y="-24.29" width="0.97" height="220" transform="translate(27.98 201.64) rotate(-75.96)"/><rect class="cls-26" x="119.66" y="-23.66" width="0.97" height="220" transform="translate(27.26 201.98) rotate(-75.97)"/><rect class="cls-27" x="119.51" y="-23.04" width="0.97" height="220" transform="translate(26.54 202.3) rotate(-75.97)"/><rect class="cls-27" x="119.35" y="-22.41" width="0.97" height="220" transform="translate(25.81 202.62) rotate(-75.97)"/><rect class="cls-27" x="119.19" y="-21.79" width="0.97" height="220" transform="translate(25.06 202.91) rotate(-75.95)"/><rect class="cls-28" x="119.04" y="-21.16" width="0.97" height="220" transform="translate(24.35 203.25) rotate(-75.96)"/><rect class="cls-28" x="118.88" y="-20.54" width="0.97" height="220" transform="translate(23.63 203.58) rotate(-75.96)"/><rect class="cls-28" x="118.73" y="-19.91" width="0.97" height="220" transform="translate(22.91 203.91) rotate(-75.97)"/><rect class="cls-28" x="118.57" y="-19.28" width="0.97" height="220" transform="translate(22.18 204.23) rotate(-75.97)"/><rect class="cls-28" x="118.41" y="-18.66" width="0.97" height="220" transform="translate(21.46 204.55) rotate(-75.97)"/><rect class="cls-28" x="118.26" y="-18.03" width="0.97" height="220" transform="translate(20.74 204.88) rotate(-75.97)"/><rect class="cls-29" x="118.1" y="-17.41" width="0.97" height="220" transform="translate(20 205.19) rotate(-75.96)"/><rect class="cls-29" x="117.94" y="-16.78" width="0.97" height="220" transform="translate(19.28 205.52) rotate(-75.97)"/><rect class="cls-29" x="117.79" y="-16.16" width="0.97" height="220" transform="translate(18.56 205.84) rotate(-75.97)"/><rect class="cls-30" x="117.63" y="-15.53" width="0.97" height="220" transform="translate(17.84 206.16) rotate(-75.97)"/><rect class="cls-30" x="117.47" y="-14.91" width="0.97" height="220" transform="translate(17.11 206.49) rotate(-75.97)"/><rect class="cls-30" x="117.32" y="-14.28" width="0.97" height="220" transform="translate(16.36 206.77) rotate(-75.95)"/><rect class="cls-31" x="117.16" y="-13.66" width="0.97" height="220" transform="translate(15.65 207.11) rotate(-75.96)"/><rect class="cls-31" x="117.01" y="-13.03" width="0.97" height="220" transform="translate(14.93 207.44) rotate(-75.97)"/><rect class="cls-32" x="116.85" y="-12.41" width="0.97" height="220" transform="translate(14.21 207.77) rotate(-75.97)"/><rect class="cls-32" x="116.69" y="-11.78" width="0.97" height="220" transform="translate(13.48 208.09) rotate(-75.97)"/><rect class="cls-32" x="116.54" y="-11.16" width="0.97" height="220" transform="translate(12.75 208.41) rotate(-75.96)"/><rect class="cls-32" x="116.38" y="-10.53" width="0.97" height="220" transform="translate(12.03 208.73) rotate(-75.96)"/><rect class="cls-32" x="116.22" y="-9.9" width="0.97" height="220" transform="translate(11.28 209.03) rotate(-75.95)"/><rect class="cls-32" x="116.07" y="-9.28" width="0.97" height="220" transform="translate(10.59 209.39) rotate(-75.97)"/><rect class="cls-33" x="115.91" y="-8.65" width="0.97" height="220" transform="translate(9.86 209.71) rotate(-75.97)"/><rect class="cls-33" x="115.76" y="-8.03" width="0.97" height="220" transform="translate(9.14 210.03) rotate(-75.97)"/><rect class="cls-33" x="115.6" y="-7.4" width="0.97" height="220" transform="translate(8.4 210.34) rotate(-75.96)"/><rect class="cls-34" x="115.44" y="-6.78" width="0.97" height="220" transform="translate(7.66 210.64) rotate(-75.95)"/><rect class="cls-34" x="115.29" y="-6.15" width="0.97" height="220" transform="translate(6.96 210.99) rotate(-75.97)"/><rect class="cls-34" x="115.13" y="-5.53" width="0.97" height="220" transform="translate(6.24 211.32) rotate(-75.97)"/><rect class="cls-34" x="114.97" y="-4.9" width="0.97" height="220" transform="translate(5.51 211.64) rotate(-75.97)"/><rect class="cls-34" x="114.82" y="-4.28" width="0.97" height="220" transform="translate(4.79 211.96) rotate(-75.97)"/><rect class="cls-34" x="114.66" y="-3.65" width="0.97" height="220" transform="translate(4.05 212.27) rotate(-75.96)"/><rect class="cls-34" x="114.51" y="-3.03" width="0.97" height="220" transform="translate(3.34 212.61) rotate(-75.97)"/><rect class="cls-34" x="114.35" y="-2.4" width="0.97" height="220" transform="translate(2.58 212.89) rotate(-75.95)"/><rect class="cls-34" x="114.19" y="-1.78" width="0.97" height="220" transform="translate(1.89 213.25) rotate(-75.97)"/><rect class="cls-35" x="114.04" y="-1.15" width="0.97" height="220" transform="translate(1.16 213.57) rotate(-75.97)"/><rect class="cls-35" x="113.88" y="-0.53" width="0.97" height="220" transform="translate(0.43 213.88) rotate(-75.96)"/><rect class="cls-35" x="113.72" y="0.1" width="0.97" height="220" transform="translate(-0.3 214.2) rotate(-75.96)"/><rect class="cls-35" x="113.57" y="0.73" width="0.97" height="220" transform="translate(-1.02 214.53) rotate(-75.97)"/><rect class="cls-35" x="113.41" y="1.35" width="0.97" height="220" transform="translate(-1.74 214.86) rotate(-75.97)"/><rect class="cls-35" x="113.25" y="1.98" width="0.97" height="220" transform="translate(-2.49 215.14) rotate(-75.95)"/><rect class="cls-36" x="113.1" y="2.6" width="0.97" height="220" transform="translate(-3.19 215.5) rotate(-75.97)"/><rect class="cls-36" x="112.94" y="3.23" width="0.97" height="220" transform="translate(-3.92 215.81) rotate(-75.96)"/><rect class="cls-36" x="112.79" y="3.85" width="0.97" height="220" transform="translate(-4.64 216.15) rotate(-75.97)"/><rect class="cls-37" x="112.63" y="4.48" width="0.97" height="220" transform="translate(-5.37 216.47) rotate(-75.97)"/><rect class="cls-37" x="112.47" y="5.1" width="0.97" height="220" transform="translate(-6.12 216.75) rotate(-75.95)"/><rect class="cls-37" x="112.32" y="5.73" width="0.97" height="220" transform="translate(-6.82 217.11) rotate(-75.97)"/><rect class="cls-37" x="112.16" y="6.35" width="0.97" height="220" transform="translate(-7.54 217.44) rotate(-75.97)"/><rect class="cls-37" x="112" y="6.98" width="0.97" height="220" transform="translate(-8.28 217.74) rotate(-75.96)"/><rect class="cls-38" x="111.85" y="7.6" width="0.97" height="220" transform="translate(-8.99 218.08) rotate(-75.97)"/><rect class="cls-38" x="111.69" y="8.23" width="0.97" height="220" transform="translate(-9.72 218.4) rotate(-75.97)"/><rect class="cls-38" x="111.54" y="8.85" width="0.97" height="220" transform="translate(-10.44 218.73) rotate(-75.97)"/><rect class="cls-39" x="111.38" y="9.48" width="0.97" height="220" transform="translate(-11.19 219) rotate(-75.95)"/><rect class="cls-39" x="111.22" y="10.11" width="0.97" height="220" transform="translate(-11.9 219.36) rotate(-75.96)"/><rect class="cls-39" x="111.07" y="10.73" width="0.97" height="220" transform="translate(-12.62 219.68) rotate(-75.96)"/><rect class="cls-40" x="110.91" y="11.36" width="0.97" height="220" transform="translate(-13.34 220.01) rotate(-75.97)"/><rect class="cls-40" x="110.75" y="11.98" width="0.97" height="220" transform="translate(-14.07 220.34) rotate(-75.97)"/><rect class="cls-40" x="110.6" y="12.61" width="0.97" height="220" transform="translate(-14.79 220.65) rotate(-75.97)"/><rect class="cls-40" x="110.44" y="13.23" width="0.97" height="220" transform="translate(-15.52 220.98) rotate(-75.97)"/><rect class="cls-40" x="110.28" y="13.86" width="0.97" height="220" transform="translate(-16.25 221.29) rotate(-75.96)"/><rect class="cls-40" x="110.13" y="14.48" width="0.97" height="220" transform="translate(-16.97 221.61) rotate(-75.97)"/><rect class="cls-40" x="109.97" y="15.11" width="0.97" height="220" transform="translate(-17.7 221.93) rotate(-75.97)"/><rect class="cls-40" x="109.82" y="15.73" width="0.97" height="220" transform="translate(-18.42 222.27) rotate(-75.97)"/><rect class="cls-40" x="109.66" y="16.36" width="0.97" height="220" transform="translate(-19.14 222.59) rotate(-75.97)"/><rect class="cls-40" x="109.5" y="16.98" width="0.97" height="220" transform="translate(-19.89 222.87) rotate(-75.95)"/><rect class="cls-40" x="109.35" y="17.61" width="0.97" height="220" transform="translate(-20.6 223.22) rotate(-75.96)"/><rect class="cls-40" x="109.19" y="18.23" width="0.97" height="220" transform="translate(-21.32 223.56) rotate(-75.97)"/><rect class="cls-40" x="109.03" y="18.86" width="0.97" height="220" transform="translate(-22.04 223.88) rotate(-75.97)"/><rect class="cls-39" x="108.88" y="19.48" width="0.97" height="220" transform="translate(-22.77 224.2) rotate(-75.97)"/><rect class="cls-39" x="108.72" y="20.11" width="0.97" height="220" transform="translate(-23.5 224.5) rotate(-75.96)"/><rect class="cls-38" x="108.57" y="20.74" width="0.97" height="220" transform="translate(-24.22 224.83) rotate(-75.96)"/><rect class="cls-38" x="108.41" y="21.36" width="0.97" height="220" transform="translate(-24.96 225.12) rotate(-75.95)"/><rect class="cls-37" x="108.25" y="21.99" width="0.97" height="220" transform="translate(-25.67 225.49) rotate(-75.97)"/><rect class="cls-37" x="108.1" y="22.61" width="0.97" height="220" transform="translate(-26.39 225.81) rotate(-75.97)"/><rect class="cls-37" x="107.94" y="23.24" width="0.97" height="220" transform="translate(-27.12 226.13) rotate(-75.97)"/><rect class="cls-37" x="107.78" y="23.86" width="0.97" height="220" transform="translate(-27.84 226.46) rotate(-75.97)"/><rect class="cls-36" x="107.63" y="24.49" width="0.97" height="220" transform="translate(-28.59 226.73) rotate(-75.95)"/><rect class="cls-36" x="107.47" y="25.11" width="0.97" height="220" transform="translate(-29.29 227.1) rotate(-75.97)"/><rect class="cls-35" x="107.32" y="25.74" width="0.97" height="220" transform="translate(-30.02 227.42) rotate(-75.97)"/><rect class="cls-35" x="107.16" y="26.36" width="0.97" height="220" transform="translate(-30.74 227.74) rotate(-75.97)"/><rect class="cls-35" x="107" y="26.99" width="0.97" height="220" transform="translate(-31.47 228.07) rotate(-75.97)"/><rect class="cls-35" x="106.85" y="27.61" width="0.97" height="220" transform="translate(-32.2 228.37) rotate(-75.96)"/><rect class="cls-34" x="106.69" y="28.24" width="0.97" height="220" transform="translate(-32.92 228.71) rotate(-75.97)"/><rect class="cls-34" x="106.53" y="28.86" width="0.97" height="220" transform="translate(-33.67 228.97) rotate(-75.95)"/><rect class="cls-34" x="106.38" y="29.49" width="0.97" height="220" transform="translate(-34.37 229.35) rotate(-75.97)"/><rect class="cls-34" x="106.22" y="30.11" width="0.97" height="220" transform="translate(-35.09 229.68) rotate(-75.97)"/><rect class="cls-34" x="106.06" y="30.74" width="0.97" height="220" transform="translate(-35.83 229.98) rotate(-75.96)"/><rect class="cls-34" x="105.91" y="31.37" width="0.97" height="220" transform="translate(-36.55 230.3) rotate(-75.96)"/><rect class="cls-34" x="105.75" y="31.99" width="0.97" height="220" transform="translate(-37.27 230.64) rotate(-75.97)"/><rect class="cls-33" x="105.6" y="32.62" width="0.97" height="220" transform="translate(-37.99 230.96) rotate(-75.97)"/><rect class="cls-33" x="105.44" y="33.24" width="0.97" height="220" transform="translate(-38.72 231.29) rotate(-75.97)"/><rect class="cls-32" x="105.28" y="33.87" width="0.97" height="220" transform="translate(-39.44 231.61) rotate(-75.97)"/><rect class="cls-32" x="105.13" y="34.49" width="0.97" height="220" transform="translate(-40.18 231.91) rotate(-75.96)"/><rect class="cls-32" x="104.97" y="35.12" width="0.97" height="220" transform="translate(-40.89 232.25) rotate(-75.97)"/><rect class="cls-32" x="104.81" y="35.74" width="0.97" height="220" transform="translate(-41.62 232.57) rotate(-75.97)"/><rect class="cls-31" x="104.66" y="36.37" width="0.97" height="220" transform="translate(-42.37 232.84) rotate(-75.95)"/><rect class="cls-31" x="104.5" y="36.99" width="0.97" height="220" transform="translate(-43.07 233.22) rotate(-75.97)"/><rect class="cls-30" x="104.35" y="37.62" width="0.97" height="220" transform="translate(-43.79 233.54) rotate(-75.97)"/><rect class="cls-30" x="104.19" y="38.24" width="0.97" height="220" transform="translate(-44.53 233.85) rotate(-75.96)"/><rect class="cls-29" x="104.03" y="38.87" width="0.97" height="220" transform="translate(-45.25 234.18) rotate(-75.97)"/><rect class="cls-29" x="103.88" y="39.49" width="0.97" height="220" transform="translate(-45.97 234.51) rotate(-75.97)"/><rect class="cls-28" x="103.72" y="40.12" width="0.97" height="220" transform="translate(-46.69 234.83) rotate(-75.97)"/><rect class="cls-28" x="103.56" y="40.75" width="0.97" height="220" transform="translate(-47.44 235.1) rotate(-75.95)"/><rect class="cls-28" x="103.41" y="41.37" width="0.97" height="220" transform="translate(-48.15 235.46) rotate(-75.96)"/><rect class="cls-28" x="103.25" y="42" width="0.97" height="220" transform="translate(-48.88 235.78) rotate(-75.96)"/><rect class="cls-27" x="103.09" y="42.62" width="0.97" height="220" transform="translate(-49.6 236.1) rotate(-75.97)"/><rect class="cls-27" x="102.94" y="43.25" width="0.97" height="220" transform="translate(-50.32 236.43) rotate(-75.97)"/><rect class="cls-27" x="102.78" y="43.87" width="0.97" height="220" transform="translate(-51.05 236.76) rotate(-75.97)"/><rect class="cls-26" x="102.63" y="44.5" width="0.97" height="220" transform="translate(-51.77 237.08) rotate(-75.97)"/><rect class="cls-26" x="102.47" y="45.12" width="0.97" height="220" transform="translate(-52.5 237.39) rotate(-75.96)"/><rect class="cls-25" x="102.31" y="45.75" width="0.97" height="220" transform="translate(-53.22 237.73) rotate(-75.97)"/><rect class="cls-25" x="102.16" y="46.37" width="0.97" height="220" transform="translate(-53.95 238.05) rotate(-75.97)"/><rect class="cls-24" x="102" y="47" width="0.97" height="220" transform="translate(-54.67 238.37) rotate(-75.97)"/><rect class="cls-24" x="101.84" y="47.62" width="0.97" height="220" transform="translate(-55.4 238.69) rotate(-75.97)"/><rect class="cls-23" x="101.69" y="48.25" width="0.97" height="220" transform="translate(-56.14 238.96) rotate(-75.95)"/><rect class="cls-23" x="101.53" y="48.87" width="0.97" height="220" transform="translate(-56.85 239.32) rotate(-75.96)"/><rect class="cls-22" x="101.38" y="49.5" width="0.97" height="220" transform="translate(-57.57 239.66) rotate(-75.97)"/><rect class="cls-22" x="101.22" y="50.13" width="0.97" height="220" transform="translate(-58.3 239.98) rotate(-75.97)"/><rect class="cls-21" x="101.06" y="50.75" width="0.97" height="220" transform="translate(-59.02 240.3) rotate(-75.97)"/><rect class="cls-21" x="100.91" y="51.38" width="0.97" height="220" transform="translate(-59.75 240.63) rotate(-75.97)"/><rect class="cls-21" x="100.75" y="52" width="0.97" height="220" transform="translate(-60.48 240.93) rotate(-75.96)"/><rect class="cls-21" x="100.59" y="52.63" width="0.97" height="220" transform="translate(-61.21 241.22) rotate(-75.95)"/><rect class="cls-20" x="100.44" y="53.25" width="0.97" height="220" transform="translate(-61.92 241.59) rotate(-75.97)"/><rect class="cls-20" x="100.28" y="53.88" width="0.97" height="220" transform="translate(-62.65 241.91) rotate(-75.97)"/><rect class="cls-19" x="100.12" y="54.5" width="0.97" height="220" transform="translate(-63.37 242.24) rotate(-75.97)"/><rect class="cls-19" x="99.97" y="55.13" width="0.97" height="220" transform="translate(-64.1 242.55) rotate(-75.97)"/><rect class="cls-18" x="99.81" y="55.75" width="0.97" height="220" transform="translate(-64.84 242.82) rotate(-75.95)"/><rect class="cls-18" x="99.66" y="56.38" width="0.97" height="220" transform="translate(-65.55 243.2) rotate(-75.97)"/><rect class="cls-18" x="99.5" y="57" width="0.97" height="220" transform="translate(-66.28 243.51) rotate(-75.97)"/><rect class="cls-17" x="99.34" y="57.63" width="0.97" height="220" transform="translate(-67 243.85) rotate(-75.97)"/><rect class="cls-17" x="99.19" y="58.25" width="0.97" height="220" transform="translate(-67.72 244.17) rotate(-75.97)"/><rect class="cls-17" x="99.03" y="58.88" width="0.97" height="220" transform="translate(-68.45 244.47) rotate(-75.96)"/><rect class="cls-17" x="98.87" y="59.5" width="0.97" height="220" transform="translate(-69.18 244.79) rotate(-75.96)"/><rect class="cls-16" x="98.72" y="60.13" width="0.97" height="220" transform="translate(-69.91 245.07) rotate(-75.95)"/><rect class="cls-16" x="98.56" y="60.76" width="0.97" height="220" transform="translate(-70.62 245.46) rotate(-75.97)"/><rect class="cls-15" x="98.41" y="61.38" width="0.97" height="220" transform="translate(-71.35 245.78) rotate(-75.97)"/><rect class="cls-15" x="98.25" y="62.01" width="0.97" height="220" transform="translate(-72.08 246.08) rotate(-75.96)"/><rect class="cls-14" x="98.09" y="62.63" width="0.97" height="220" transform="translate(-72.8 246.4) rotate(-75.96)"/><rect class="cls-14" x="97.94" y="63.26" width="0.97" height="220" transform="translate(-73.52 246.75) rotate(-75.97)"/><rect class="cls-13" x="97.78" y="63.88" width="0.97" height="220" transform="translate(-74.25 247.07) rotate(-75.97)"/><rect class="cls-13" x="97.62" y="64.51" width="0.97" height="220" transform="translate(-74.97 247.39) rotate(-75.97)"/><rect class="cls-12" x="97.47" y="65.13" width="0.97" height="220" transform="translate(-75.7 247.71) rotate(-75.97)"/><rect class="cls-12" x="97.31" y="65.76" width="0.97" height="220" transform="translate(-76.43 248.01) rotate(-75.96)"/><rect class="cls-11" x="97.15" y="66.38" width="0.97" height="220" transform="translate(-77.15 248.36) rotate(-75.97)"/><rect class="cls-11" x="97" y="67.01" width="0.97" height="220" transform="translate(-77.87 248.68) rotate(-75.97)"/><rect class="cls-11" x="96.84" y="67.63" width="0.97" height="220" transform="translate(-78.61 248.94) rotate(-75.95)"/><rect class="cls-11" x="96.69" y="68.26" width="0.97" height="220" transform="translate(-79.32 249.32) rotate(-75.97)"/><rect class="cls-10" x="96.53" y="68.88" width="0.97" height="220" transform="translate(-80.05 249.64) rotate(-75.97)"/><rect class="cls-10" x="96.37" y="69.51" width="0.97" height="220" transform="translate(-80.78 249.95) rotate(-75.96)"/><rect class="cls-10" x="96.22" y="70.13" width="0.97" height="220" transform="translate(-81.5 250.29) rotate(-75.97)"/><rect class="cls-9" x="96.06" y="70.76" width="0.97" height="220" transform="translate(-82.22 250.6) rotate(-75.97)"/><rect class="cls-9" x="95.9" y="71.39" width="0.97" height="220" transform="translate(-82.95 250.92) rotate(-75.97)"/><rect class="cls-9" x="95.75" y="72.01" width="0.97" height="220" transform="translate(-83.69 251.19) rotate(-75.95)"/><rect class="cls-9" x="95.59" y="72.64" width="0.97" height="220" transform="translate(-84.4 251.56) rotate(-75.96)"/><rect class="cls-8" x="95.44" y="73.26" width="0.97" height="220" transform="translate(-85.13 251.87) rotate(-75.96)"/><rect class="cls-8" x="95.28" y="73.89" width="0.97" height="220" transform="translate(-85.85 252.22) rotate(-75.97)"/><rect class="cls-7" x="95.12" y="74.51" width="0.97" height="220" transform="translate(-86.57 252.54) rotate(-75.97)"/><rect class="cls-7" x="94.97" y="75.14" width="0.97" height="220" transform="translate(-87.3 252.86) rotate(-75.97)"/><rect class="cls-6" x="94.81" y="75.76" width="0.97" height="220" transform="translate(-88.02 253.18) rotate(-75.97)"/><rect class="cls-6" x="94.65" y="76.39" width="0.97" height="220" transform="translate(-88.75 253.49) rotate(-75.96)"/><rect class="cls-5" x="94.5" y="77.01" width="0.97" height="220" transform="translate(-89.47 253.83) rotate(-75.97)"/><rect class="cls-5" x="94.34" y="77.64" width="0.97" height="220" transform="translate(-90.2 254.15) rotate(-75.97)"/><rect class="cls-5" x="94.18" y="78.26" width="0.97" height="220" transform="translate(-90.92 254.47) rotate(-75.97)"/><rect class="cls-5" x="94.03" y="78.89" width="0.97" height="220" transform="translate(-91.65 254.79) rotate(-75.97)"/><rect class="cls-4" x="93.87" y="79.51" width="0.97" height="220" transform="translate(-92.39 255.06) rotate(-75.95)"/><rect class="cls-4" x="93.72" y="80.14" width="0.97" height="220" transform="translate(-93.1 255.42) rotate(-75.96)"/><rect class="cls-3" x="93.56" y="80.77" width="0.97" height="220" transform="translate(-93.82 255.76) rotate(-75.97)"/><rect class="cls-3" x="93.4" y="81.39" width="0.97" height="220" transform="translate(-94.55 256.08) rotate(-75.97)"/><rect class="cls-3" x="93.25" y="82.02" width="0.97" height="220" transform="translate(-95.27 256.41) rotate(-75.97)"/><rect class="cls-3" x="75.81" y="96.14" width="28.79" height="220" transform="translate(-111.65 263.67) rotate(-75.97)"/></g></g></g></svg>